<svg width="23" height="26" viewBox="0 0 23 26" fill="none" xmlns="http://www.w3.org/2000/svg">
<path d="M9.96667 10.7059C9.48692 10.7056 9.01909 10.855 8.62867 11.133C8.23824 11.4111 7.94477 11.804 7.78933 12.2567C8.31833 12.3179 8.809 12.5014 9.23373 12.7767C9.28168 12.6201 9.37876 12.483 9.51071 12.3855C9.64265 12.288 9.80248 12.2354 9.96667 12.2353H10.7333V14.4943C11.4288 14.7733 11.9977 15.2967 12.3326 15.9656L12.7635 16.8236H18.4V19.1177C18.4 19.3205 18.3192 19.515 18.1754 19.6584C18.0317 19.8018 17.8367 19.8824 17.6333 19.8824H13.8V21.4118H17.6333C18.2433 21.4118 18.8283 21.1701 19.2597 20.7399C19.691 20.3097 19.9333 19.7261 19.9333 19.1177V13C19.9333 12.3916 19.691 11.8081 19.2597 11.3778C18.8283 10.9476 18.2433 10.7059 17.6333 10.7059H9.96667ZM18.4 15.2942H12.2667V12.2353H17.6333C17.8367 12.2353 18.0317 12.3159 18.1754 12.4593C18.3192 12.6027 18.4 12.7972 18.4 13V15.2942ZM4.6 12.2353H6.13333V3.05883C6.13333 2.6532 6.29488 2.26419 6.58244 1.97737C6.86999 1.69055 7.26 1.52942 7.66667 1.52942H13.8V6.88237C13.8 7.49081 14.0423 8.07433 14.4737 8.50456C14.905 8.93479 15.49 9.17649 16.1 9.17649H21.4667V21.4118C21.4667 21.8174 21.3051 22.2065 21.0176 22.4933C20.73 22.7801 20.34 22.9412 19.9333 22.9412H13.8C13.8 23.4979 13.6513 24.021 13.3891 24.4706H19.9333C20.7467 24.4706 21.5267 24.1484 22.1018 23.5747C22.6769 23.0011 23 22.2231 23 21.4118V8.28026C22.9995 7.67202 22.7568 7.08889 22.3253 6.65908L16.3239 0.671413C15.8927 0.24162 15.3081 0.000129819 14.6985 0H7.66667C6.85334 0 6.07332 0.322269 5.49821 0.895911C4.92309 1.46955 4.6 2.24758 4.6 3.05883V12.2353ZM21.1493 7.64708H16.1C15.8967 7.64708 15.7017 7.56651 15.5579 7.4231C15.4141 7.27969 15.3333 7.08518 15.3333 6.88237V1.846L21.1493 7.64708ZM1.7894 13.7647C0.8004 13.7647 0 14.5631 0 15.5496V22.6858C0 23.4108 0.4324 24.0317 1.05187 24.3131C1.13302 24.7718 1.36907 25.189 1.72081 25.4954C2.07255 25.8017 2.51879 25.9788 2.9854 25.9972C3.452 26.0156 3.91087 25.8742 4.28576 25.5965C4.66065 25.3188 4.92899 24.9215 5.0462 24.4706H6.19773C6.31125 24.9084 6.56734 25.2962 6.92578 25.573C7.28423 25.8498 7.72471 26 8.17803 26C8.63136 26 9.07184 25.8498 9.43028 25.573C9.78872 25.2962 10.0448 24.9084 10.1583 24.4706H10.7333C11.14 24.4706 11.53 24.3095 11.8176 24.0227C12.1051 23.7359 12.2667 23.3469 12.2667 22.9412V19.6132C12.2664 19.3758 12.2108 19.1418 12.1041 18.9296L10.9618 16.6507C10.8348 16.3965 10.6392 16.1825 10.3971 16.0328C10.155 15.8832 9.87584 15.8037 9.591 15.8035H9.2V15.5496C9.2 14.5631 8.3996 13.7647 7.4106 13.7647H1.7894ZM9.2 18.8623V16.8236H9.591C9.7842 16.8236 9.96053 16.9322 10.0479 17.105L10.9281 18.8638H9.2V18.8623ZM2.04393 23.9614C2.04393 23.6908 2.15169 23.4313 2.34349 23.24C2.53528 23.0487 2.79542 22.9412 3.06667 22.9412C3.33791 22.9412 3.59805 23.0487 3.78985 23.24C3.98165 23.4313 4.0894 23.6908 4.0894 23.9614C4.0894 24.2319 3.98165 24.4914 3.78985 24.6827C3.59805 24.874 3.33791 24.9815 3.06667 24.9815C2.79542 24.9815 2.53528 24.874 2.34349 24.6827C2.15169 24.4914 2.04393 24.2319 2.04393 23.9614ZM8.17727 24.9799C8.03973 24.9853 7.90253 24.9628 7.77389 24.914C7.64525 24.8652 7.52782 24.7909 7.42863 24.6958C7.32944 24.6006 7.25052 24.4864 7.19662 24.3601C7.14272 24.2338 7.11494 24.0979 7.11494 23.9606C7.11494 23.8233 7.14272 23.6874 7.19662 23.5611C7.25052 23.4348 7.32944 23.3206 7.42863 23.2254C7.52782 23.1302 7.64525 23.056 7.77389 23.0072C7.90253 22.9583 8.03973 22.9359 8.17727 22.9412C8.44146 22.9514 8.69142 23.0633 8.87472 23.2534C9.05802 23.4434 9.16041 23.6969 9.16041 23.9606C9.16041 24.2243 9.05802 24.4778 8.87472 24.6678C8.69142 24.8579 8.44146 24.9697 8.17727 24.9799Z" fill="black"/>
</svg>
