<svg width="22" height="19" viewBox="0 0 22 19" fill="none" xmlns="http://www.w3.org/2000/svg">
<path d="M6 4V2C6 1.73478 6.10536 1.48043 6.29289 1.29289C6.48043 1.10536 6.73478 1 7 1H20C20.2652 1 20.5196 1.10536 20.7071 1.29289C20.8946 1.48043 21 1.73478 21 2V11C21 11.2652 20.8946 11.5196 20.7071 11.7071C20.5196 11.8946 20.2652 12 20 12H19" stroke="#9A031E" stroke-width="2" stroke-linecap="round" stroke-linejoin="round"/>
<path d="M15 7H2C1.44772 7 1 7.44772 1 8V17C1 17.5523 1.44772 18 2 18H15C15.5523 18 16 17.5523 16 17V8C16 7.44772 15.5523 7 15 7Z" stroke="#9A031E" stroke-width="2" stroke-linecap="round" stroke-linejoin="round"/>
<path d="M1 11.5H16" stroke="#9A031E" stroke-width="2" stroke-linecap="round" stroke-linejoin="round"/>
<path d="M16 9V15" stroke="#9A031E" stroke-width="2" stroke-linecap="round" stroke-linejoin="round"/>
<path d="M1 9V15" stroke="#9A031E" stroke-width="2" stroke-linecap="round" stroke-linejoin="round"/>
<path d="M4.5 14.5H8.5" stroke="#9A031E" stroke-width="2" stroke-linecap="round" stroke-linejoin="round"/>
<path d="M11.5 14.5H12.5" stroke="#9A031E" stroke-width="2" stroke-linecap="round" stroke-linejoin="round"/>
</svg>
