<svg width="123" height="123" viewBox="0 0 123 123" fill="none" xmlns="http://www.w3.org/2000/svg">
<path d="M113.321 33.1485L74.884 12.0079C74.3164 11.6956 73.6791 11.5319 73.0313 11.5319C72.3835 11.5319 71.7462 11.6956 71.1786 12.0079L32.7411 33.1485C32.1384 33.4803 31.6359 33.9678 31.2859 34.5601C30.9359 35.1523 30.7512 35.8277 30.7512 36.5156C30.7512 37.2036 30.9359 37.8789 31.2859 38.4712C31.6359 39.0635 32.1384 39.5509 32.7411 39.8828L69.1875 59.9279V101.129L57.5179 94.71L53.8125 101.44L71.1786 110.992C71.7459 111.305 72.3833 111.469 73.0313 111.469C73.6792 111.469 74.3166 111.305 74.884 110.992L113.321 89.8515C113.924 89.5198 114.427 89.0324 114.777 88.4402C115.128 87.8479 115.312 87.1725 115.313 86.4844V36.5156C115.312 35.8275 115.128 35.1521 114.777 34.5598C114.427 33.9676 113.924 33.4802 113.321 33.1485ZM73.0313 19.7646L103.493 36.5156L73.0313 53.2667L42.5696 36.5156L73.0313 19.7646ZM107.625 84.2127L76.875 101.125V59.9241L107.625 43.0116V84.2127Z" fill="#9A031E"/>
<path d="M38.4375 61.5H7.6875V53.8125H38.4375V61.5Z" fill="#9A031E"/>
<path d="M46.125 92.25H15.375V84.5625H46.125V92.25Z" fill="#9A031E"/>
<path d="M53.8125 76.875H23.0625V69.1875H53.8125V76.875Z" fill="#9A031E"/>
</svg>
