<svg width="100" height="102" viewBox="0 0 100 102" fill="none" xmlns="http://www.w3.org/2000/svg">
<path d="M65.0794 35.1091L54.5635 24.5813L44.0476 35.1587L37.004 28.1071L47.5694 17.5794L37.0536 7.05161L44.0476 0.0496592L54.5635 10.5774L65.0794 0L72.123 7.05161L61.5575 17.5794L72.0734 28.1071L65.0794 35.1091ZM29.7619 82.1363C32.393 82.1363 34.9164 83.1827 36.7769 85.0453C38.6373 86.9079 39.6825 89.4341 39.6825 92.0682C39.6825 94.7022 38.6373 97.2284 36.7769 99.091C34.9164 100.954 32.393 102 29.7619 102C27.1308 102 24.6074 100.954 22.747 99.091C20.8865 97.2284 19.8413 94.7022 19.8413 92.0682C19.8413 89.4341 20.8865 86.9079 22.747 85.0453C24.6074 83.1827 27.1308 82.1363 29.7619 82.1363ZM79.3651 82.1363C81.9962 82.1363 84.5195 83.1827 86.38 85.0453C88.2405 86.9079 89.2857 89.4341 89.2857 92.0682C89.2857 94.7022 88.2405 97.2284 86.38 99.091C84.5195 100.954 81.9962 102 79.3651 102C76.734 102 74.2106 100.954 72.3501 99.091C70.4897 97.2284 69.4444 94.7022 69.4444 92.0682C69.4444 89.4341 70.4897 86.9079 72.3501 85.0453C74.2106 83.1827 76.734 82.1363 79.3651 82.1363ZM30.6052 65.9971C30.6052 66.3263 30.7358 66.6421 30.9684 66.8749C31.2009 67.1078 31.5163 67.2386 31.8452 67.2386H89.2857V77.1704H29.7619C27.1308 77.1704 24.6074 76.124 22.747 74.2614C20.8865 72.3988 19.8413 69.8726 19.8413 67.2386C19.8413 65.5005 20.2877 63.8617 21.0814 62.4713L27.7778 50.3048L9.92064 12.6134H0V2.6816H16.2202L20.8829 12.6134L25.5952 22.5453L36.7063 46.0341L37.3512 47.3749H72.1726L85.8631 22.5453L91.3194 12.6134H91.369L100 17.3807L80.8532 52.1918C79.1667 55.2707 75.8929 57.3067 72.1726 57.3067H35.2183L30.754 65.4012L30.6052 65.9971Z" fill="#9A031E"/>
</svg>
