<svg width="188" height="241" viewBox="0 0 188 241" fill="none" xmlns="http://www.w3.org/2000/svg">
<path d="M153.6 78.52C153.6 78.76 153.24 78.94 152.52 79.06C151.92 79.18 151.56 79.06 151.44 78.7C148.56 65.02 140.22 58.18 126.42 58.18H119.22C114.9 58.18 111.84 58.96 110.04 60.52C108.24 62.08 107.34 64.66 107.34 68.26V107.32H122.1C135.54 107.32 142.26 102.82 142.26 93.82C142.26 93.58 142.62 93.46 143.34 93.46C144.06 93.46 144.42 93.58 144.42 93.82L144.24 109.66C144.24 113.38 144.3 116.14 144.42 117.94L144.6 127.3C144.6 127.66 144.24 127.84 143.52 127.84C142.8 127.84 142.44 127.66 142.44 127.3C142.44 117.1 135.54 112 121.74 112H107.34V150.7C107.34 154.54 107.82 157.36 108.78 159.16C109.74 160.84 111.6 162.04 114.36 162.76C117.24 163.48 121.62 163.84 127.5 163.84C127.74 163.84 127.86 164.2 127.86 164.92C127.86 165.64 127.74 166 127.5 166C122.58 166 118.74 165.94 115.98 165.82L98.34 165.64L85.2 165.82C82.92 165.94 79.74 166 75.66 166C75.3 166 75.12 165.64 75.12 164.92C75.12 164.2 75.3 163.84 75.66 163.84C79.98 163.84 83.1 163.54 85.02 162.94C87.06 162.34 88.44 161.2 89.16 159.52C89.88 157.72 90.24 155.02 90.24 151.42V68.08C90.24 64.48 89.88 61.84 89.16 60.16C88.56 58.48 87.3 57.34 85.38 56.74C83.46 56.02 80.52 55.66 76.56 55.66C76.2 55.66 76.02 55.3 76.02 54.58C76.02 53.86 76.2 53.5 76.56 53.5H151.44C152.64 53.5 153.24 54.04 153.24 55.12L153.6 78.52Z" fill="#40898A"/>
<path d="M40.98 137.92C40.98 137.68 40.74 137.56 40.26 137.56C39.9 137.56 39.6 137.68 39.36 137.92C39 138.04 38.82 138.16 38.82 138.28C40.02 147.4 40.62 155.74 40.62 163.3C40.62 164.26 40.8 164.98 41.16 165.46C41.52 165.82 42.24 166 43.32 166H121.44C121.8 166 121.98 165.64 121.98 164.92C121.98 164.2 121.8 163.84 121.44 163.84C117.36 163.84 114.42 163.54 112.62 162.94C110.7 162.34 109.44 161.2 108.84 159.52C108.12 157.72 107.76 155.02 107.76 151.42V68.08C107.76 64.48 108.12 61.84 108.84 60.16C109.44 58.48 110.7 57.34 112.62 56.74C114.54 56.02 117.48 55.66 121.44 55.66C121.8 55.66 121.98 55.3 121.98 54.58C121.98 53.86 121.8 53.5 121.44 53.5H46.56C45.36 53.5 44.76 54.04 44.76 55.12L44.4 78.52C44.4 78.76 44.76 78.94 45.48 79.06C46.08 79.18 46.44 79.06 46.56 78.7C49.44 65.02 57.78 58.18 71.58 58.18H78.78C83.1 58.18 86.16 58.96 87.96 60.52C89.76 62.08 90.66 64.72 90.66 68.44V105.16H73.38C60.18 105.16 53.58 100.72 53.58 91.84C53.58 91.48 53.28 91.3 52.68 91.3C51.96 91.3 51.6 91.48 51.6 91.84L51.78 107.5L51.6 115.96C51.36 119.8 51.24 122.92 51.24 125.32C51.24 125.56 51.6 125.68 52.32 125.68C53.04 125.68 53.4 125.56 53.4 125.32C53.4 115 60.12 109.84 73.56 109.84H90.66V150.7C90.66 154.66 89.94 157.42 88.5 158.98C86.94 160.54 84.24 161.32 80.4 161.32H71.58C55.5 161.32 45.3 153.52 40.98 137.92Z" fill="#40898A"/>
<path d="M18.144 214.44V217H2.72V194.28H17.856V196.84H5.6V204.2H16.256V206.6H5.6V214.44H18.144ZM36.687 194.28H39.119L48.399 217H45.327L42.639 210.344H33.103L30.447 217H27.375L36.687 194.28ZM41.999 208.104L37.903 197.608L33.679 208.104H41.999ZM72.1428 199.048C71.8868 198.749 71.5454 198.461 71.1188 198.184C70.6921 197.907 70.2121 197.661 69.6788 197.448C69.1454 197.213 68.5588 197.032 67.9188 196.904C67.3001 196.755 66.6494 196.68 65.9668 196.68C64.2174 196.68 62.9268 197.011 62.0948 197.672C61.2628 198.333 60.8468 199.24 60.8468 200.392C60.8468 201.203 61.0601 201.843 61.4868 202.312C61.9134 202.781 62.5641 203.165 63.4388 203.464C64.3348 203.763 65.4654 204.072 66.8308 204.392C68.4094 204.733 69.7748 205.149 70.9268 205.64C72.0788 206.131 72.9641 206.792 73.5828 207.624C74.2014 208.435 74.5108 209.523 74.5108 210.888C74.5108 211.976 74.2974 212.925 73.8708 213.736C73.4654 214.525 72.8894 215.187 72.1428 215.72C71.3961 216.232 70.5214 216.616 69.5188 216.872C68.5161 217.107 67.4281 217.224 66.2548 217.224C65.1028 217.224 63.9721 217.107 62.8628 216.872C61.7748 216.616 60.7401 216.253 59.7588 215.784C58.7774 215.315 57.8601 214.728 57.0068 214.024L58.3828 211.592C58.7241 211.955 59.1614 212.317 59.6948 212.68C60.2494 213.021 60.8681 213.341 61.5508 213.64C62.2548 213.939 63.0121 214.184 63.8228 214.376C64.6334 214.547 65.4654 214.632 66.3188 214.632C67.9401 214.632 69.1988 214.344 70.0948 213.768C70.9908 213.171 71.4388 212.307 71.4388 211.176C71.4388 210.323 71.1828 209.64 70.6708 209.128C70.1801 208.616 69.4441 208.189 68.4628 207.848C67.4814 207.507 66.2868 207.165 64.8788 206.824C63.3428 206.44 62.0521 206.024 61.0068 205.576C59.9614 205.107 59.1721 204.499 58.6388 203.752C58.1268 203.005 57.8708 202.035 57.8708 200.84C57.8708 199.389 58.2228 198.163 58.9268 197.16C59.6308 196.157 60.6014 195.4 61.8388 194.888C63.0761 194.376 64.4734 194.12 66.0308 194.12C67.0548 194.12 68.0041 194.227 68.8788 194.44C69.7748 194.653 70.6068 194.952 71.3748 195.336C72.1428 195.72 72.8468 196.179 73.4868 196.712L72.1428 199.048ZM86.2803 194.28L93.1603 206.12L100.104 194.28H103.24L94.6003 208.712V217H91.7203V208.648L83.1123 194.28H86.2803ZM128.651 217V194.28H143.659V196.84H131.531V204.424H141.739V206.824H131.531V217H128.651ZM154.988 217V194.28H157.868V217H154.988ZM187.364 196.84H179.524V217H176.644V196.84H168.804V194.28H187.364V196.84Z" fill="#40898A"/>
<path d="M12.152 224.93V237H10.622V231.509H3.975V237H2.445V224.93H3.975V230.149H10.622V224.93H12.152ZM27.3196 235.64V237H19.1256V224.93H27.1666V226.29H20.6556V230.2H26.3166V231.475H20.6556V235.64H27.3196ZM37.1706 224.93H38.4626L43.3926 237H41.7606L40.3326 233.464H35.2666L33.8556 237H32.2236L37.1706 224.93ZM39.9926 232.274L37.8166 226.698L35.5726 232.274H39.9926ZM49.0834 237V224.93H50.6134V235.64H57.3454V237H49.0834ZM69.9358 226.29H65.7708V237H64.2408V226.29H60.0758V224.93H69.9358V226.29ZM85.4612 224.93V237H83.9312V231.509H77.2842V237H75.7542V224.93H77.2842V230.149H83.9312V224.93H85.4612ZM92.8938 224.93L96.5488 231.22L100.238 224.93H101.904L97.3138 232.597V237H95.7838V232.563L91.2108 224.93H92.8938ZM125.841 237V227.786L121.863 234.875H120.928L116.933 227.786V237H115.403V224.93H117.018L121.387 232.767L125.773 224.93H127.371V237H125.841ZM142.536 235.64V237H134.342V224.93H142.383V226.29H135.872V230.2H141.533V231.475H135.872V235.64H142.536ZM152.387 224.93H153.679L158.609 237H156.977L155.549 233.464H150.483L149.072 237H147.44L152.387 224.93ZM155.209 232.274L153.033 226.698L150.789 232.274H155.209ZM164.3 237V224.93H165.83V235.64H172.562V237H164.3ZM185.396 227.463C185.26 227.304 185.079 227.151 184.852 227.004C184.626 226.857 184.371 226.726 184.087 226.613C183.804 226.488 183.492 226.392 183.152 226.324C182.824 226.245 182.478 226.205 182.115 226.205C181.186 226.205 180.5 226.381 180.058 226.732C179.616 227.083 179.395 227.565 179.395 228.177C179.395 228.608 179.509 228.948 179.735 229.197C179.962 229.446 180.308 229.65 180.772 229.809C181.248 229.968 181.849 230.132 182.574 230.302C183.413 230.483 184.138 230.704 184.75 230.965C185.362 231.226 185.833 231.577 186.161 232.019C186.49 232.45 186.654 233.028 186.654 233.753C186.654 234.331 186.541 234.835 186.314 235.266C186.099 235.685 185.793 236.037 185.396 236.32C185 236.592 184.535 236.796 184.002 236.932C183.47 237.057 182.892 237.119 182.268 237.119C181.656 237.119 181.056 237.057 180.466 236.932C179.888 236.796 179.339 236.603 178.817 236.354C178.296 236.105 177.809 235.793 177.355 235.419L178.086 234.127C178.268 234.32 178.5 234.512 178.783 234.705C179.078 234.886 179.407 235.056 179.769 235.215C180.143 235.374 180.546 235.504 180.976 235.606C181.407 235.697 181.849 235.742 182.302 235.742C183.164 235.742 183.832 235.589 184.308 235.283C184.784 234.966 185.022 234.507 185.022 233.906C185.022 233.453 184.886 233.09 184.614 232.818C184.354 232.546 183.963 232.319 183.441 232.138C182.92 231.957 182.285 231.775 181.537 231.594C180.721 231.39 180.036 231.169 179.48 230.931C178.925 230.682 178.506 230.359 178.222 229.962C177.95 229.565 177.814 229.05 177.814 228.415C177.814 227.644 178.001 226.993 178.375 226.46C178.749 225.927 179.265 225.525 179.922 225.253C180.58 224.981 181.322 224.845 182.149 224.845C182.693 224.845 183.198 224.902 183.662 225.015C184.138 225.128 184.58 225.287 184.988 225.491C185.396 225.695 185.77 225.939 186.11 226.222L185.396 227.463Z" fill="#40898A"/>
</svg>
